<?xml version="1.0" encoding="UTF-8"?><svg id="Layer_1" xmlns="http://www.w3.org/2000/svg" viewBox="0 0 432.35 118.74"><defs><style>.cls-1{fill:#fff;}</style></defs><path class="cls-1" d="m196.27,51.41c-1.2,1.15-2.69,1.64-6.06,1.64h-10.29c-3.32,0-4.86-.48-6.06-1.64-1.92-1.83-3.32-4.91-3.32-15.2s1.4-13.42,3.32-15.2c1.2-1.16,2.74-1.64,6.06-1.64h10.29c3.37,0,4.86.48,6.06,1.64,1.78,1.68,2.6,4.23,2.7,10.53h-7.51c-.14-4.18-.58-5.1-.96-5.48-.34-.34-.77-.48-2.31-.48h-6.25c-1.54,0-1.97.14-2.31.48-.43.38-1.06,1.59-1.06,10.15s.62,9.72,1.06,10.15c.34.29.77.43,2.31.43h6.25c1.54.05,1.97-.14,2.31-.43.39-.39.82-1.2.96-5.87h7.55c-.19,6.78-.96,9.24-2.74,10.92"/><path class="cls-1" d="m212.8,46.75c.29.39.67.48,1.92.48h4.57c1.25,0,1.64-.14,1.92-.48.39-.39.62-1.25.62-6.93s-.24-6.54-.62-6.97c-.29-.34-.67-.43-1.92-.43h-4.57c-1.25,0-1.64.1-1.92.43-.39.43-.62,1.3-.62,6.97s.24,6.54.62,6.93m-5.53,4.67c-1.73-1.73-2.41-4.14-2.41-11.59s.67-9.86,2.41-11.64c1.11-1.15,2.55-1.59,5.24-1.59h9c2.69,0,4.09.43,5.24,1.59,1.73,1.78,2.41,4.14,2.41,11.64s-.67,9.86-2.41,11.59c-1.15,1.2-2.55,1.64-5.24,1.64h-9c-2.69,0-4.09-.43-5.24-1.64"/><path class="cls-1" d="m242.98,26.59v3.51c3.42-3.08,4.47-3.56,6.93-3.56h2.26c2.26,0,3.7.48,4.71,1.49.58.58,1.01,1.25,1.25,2.36,3.61-3.32,4.71-3.85,7.21-3.85h2.26c2.26,0,3.7.48,4.72,1.49,1.11,1.06,1.54,2.45,1.54,6.35v18.67h-7.46v-17.85c0-1.16-.19-1.78-.58-2.17-.43-.43-.91-.62-2.21-.62h-1.2c-1.2,0-2.36.29-3.99,1.06v19.58h-7.36v-17.85c0-1.16-.19-1.78-.58-2.17-.43-.43-.91-.62-2.21-.62h-1.2c-1.2,0-2.41.39-4.09,1.11v19.53h-7.36v-26.46h7.36Z"/><path class="cls-1" d="m288.26,26.59v3.51c3.42-3.08,4.47-3.56,6.93-3.56h2.26c2.26,0,3.7.48,4.71,1.49.58.58,1.01,1.25,1.25,2.36,3.61-3.32,4.71-3.85,7.21-3.85h2.26c2.26,0,3.7.48,4.72,1.49,1.11,1.06,1.54,2.45,1.54,6.35v18.67h-7.46v-17.85c0-1.16-.19-1.78-.58-2.17-.43-.43-.91-.62-2.21-.62h-1.2c-1.2,0-2.36.29-3.99,1.06v19.58h-7.36v-17.85c0-1.16-.19-1.78-.58-2.17-.43-.43-.91-.62-2.21-.62h-1.2c-1.2,0-2.41.39-4.09,1.11v19.53h-7.36v-26.46h7.36Z"/><path class="cls-1" d="m341.83,46.46v-4.43h-4.86c-2.79,0-3.46.19-3.94.67-.48.48-.58,1.06-.58,2.26,0,1.35.1,2.07.48,2.45.39.39.91.43,1.88.43h2.07c1.54,0,2.55-.14,4.95-1.39m-13.85-18.38c1.06-1.06,2.31-1.49,4.71-1.49h9.67c2.69,0,4.28.48,5.24,1.49,1.2,1.2,1.59,2.6,1.59,7.07v17.9h-7.36v-3.03c-3.17,2.6-4.33,3.08-6.69,3.08h-3.61c-2.36,0-3.61-.29-4.66-1.35-.91-.91-1.54-2.45-1.54-5.92,0-3.27.48-5.29,1.64-6.45,1.2-1.2,2.74-1.78,7.5-1.78,2.55,0,5.2.29,7.36.77v-2.36c0-2.6-.14-3.13-.48-3.51-.34-.29-.82-.38-1.92-.38h-3.7c-1.01,0-1.54.1-1.83.38-.38.39-.43.91-.53,2.5h-6.98c.05-4.43.48-5.87,1.59-6.93"/><path class="cls-1" d="m356.16,53.05v-26.46h7.36v3.51c3.42-3.08,4.47-3.56,6.93-3.56h3.22c2.26,0,3.7.48,4.71,1.49,1.11,1.06,1.54,2.45,1.54,6.35v18.67h-7.36v-17.8c0-1.11-.19-1.73-.58-2.16-.43-.43-.91-.58-2.21-.58h-2.07c-1.25,0-2.41.29-4.19,1.11v19.43h-7.36Z"/><path class="cls-1" d="m403.38,46.07v-12.6c-1.54-.72-2.65-1.06-3.85-1.06h-2.65c-1.35,0-1.97.19-2.41.62-.67.62-.87,1.73-.87,6.78s.19,6.11.87,6.78c.43.43,1.06.58,2.41.58h2.4c1.25,0,2.45-.34,4.09-1.11m0,6.97v-3.42c-3.32,2.89-4.47,3.46-6.64,3.46h-2.79c-2.79,0-4.28-.48-5.44-1.63-1.59-1.59-2.21-3.9-2.21-11.64s.77-10,2.41-11.64c1.16-1.15,2.7-1.64,5.34-1.64h2.89c2.21,0,3.42.48,6.45,3.03v-12.03h7.36v35.5h-7.36Z"/><path class="cls-1" d="m180.7,86.94h8.12l-3.75-12.49h-.62l-3.75,12.49Zm9.85,5.86h-11.58l-2.5,8.36h-7.83l10.42-31.56c.63-1.83.96-2.21,2.74-2.21h6.48c1.73,0,2.11.43,2.74,2.21l10.42,31.56h-8.36l-2.55-8.36Z"/><rect class="cls-1" x="206.79" y="65.7" width="7.4" height="35.45"/><polygon class="cls-1" points="221.09 65.7 221.09 101.15 228.44 101.15 228.44 90.63 230.07 90.63 237.42 101.15 246.07 101.15 236.03 87.37 245.59 74.73 237.61 74.73 230.07 85.16 228.44 85.16 228.44 65.7 221.09 65.7"/><path class="cls-1" d="m257.28,94.86c.29.39.67.48,1.92.48h4.56c1.25,0,1.63-.14,1.92-.48.38-.38.62-1.25.62-6.92s-.24-6.53-.62-6.96c-.29-.34-.67-.43-1.92-.43h-4.56c-1.25,0-1.63.1-1.92.43-.38.43-.62,1.3-.62,6.96s.24,6.53.62,6.92m-5.52,4.66c-1.73-1.73-2.4-4.13-2.4-11.58s.67-9.85,2.4-11.62c1.11-1.15,2.55-1.59,5.24-1.59h8.98c2.69,0,4.08.43,5.24,1.59,1.73,1.78,2.4,4.13,2.4,11.62s-.67,9.85-2.4,11.58c-1.15,1.2-2.55,1.63-5.24,1.63h-8.98c-2.69,0-4.08-.43-5.24-1.63"/><path class="cls-1" d="m280.07,101.15v-26.42h7.35v3.51c3.41-3.07,4.47-3.55,6.92-3.55h3.22c2.26,0,3.7.48,4.71,1.49,1.11,1.06,1.54,2.45,1.54,6.34v18.64h-7.35v-17.77c0-1.1-.19-1.73-.58-2.16-.43-.43-.91-.58-2.21-.58h-2.07c-1.25,0-2.4.29-4.18,1.11v19.41h-7.35Z"/><polygon class="cls-1" points="92.79 46.01 127.49 84.65 92.79 84.65 92.79 101.19 142.35 101.19 151.42 84.65 92.79 19.37 92.79 46.01"/><polygon class="cls-1" points="74.55 25.7 21.62 84.65 30.69 101.19 80.24 101.19 80.24 84.65 45.54 84.65 80.24 46.01 80.24 19.37 74.55 25.7"/><path class="cls-1" d="m323.09,94.52c0,3.74-2.93,6.67-6.75,6.67s-6.79-2.93-6.79-6.67,3.01-6.59,6.79-6.59,6.75,2.93,6.75,6.59Zm-11.85,0c0,2.93,2.17,5.26,5.14,5.26s5.02-2.33,5.02-5.22-2.13-5.3-5.06-5.3-5.1,2.37-5.1,5.26Zm4.06,3.45h-1.53v-6.59c.6-.12,1.45-.2,2.53-.2,1.25,0,1.81.2,2.29.48.36.28.64.8.64,1.45,0,.72-.56,1.29-1.37,1.53v.08c.64.24,1,.72,1.21,1.61.2,1,.32,1.41.48,1.65h-1.65c-.2-.24-.32-.84-.52-1.61-.12-.72-.52-1.04-1.37-1.04h-.72v2.65Zm.04-3.74h.72c.84,0,1.53-.28,1.53-.96,0-.6-.44-1-1.41-1-.4,0-.68.04-.84.08v1.89Z"/></svg>